<?xml version="1.0" encoding="UTF-8" standalone="no"?>
<svg
   xmlns:dc="http://purl.org/dc/elements/1.1/"
   xmlns:cc="http://creativecommons.org/ns#"
   xmlns:rdf="http://www.w3.org/1999/02/22-rdf-syntax-ns#"
   xmlns:svg="http://www.w3.org/2000/svg"
   xmlns="http://www.w3.org/2000/svg"
   xmlns:xlink="http://www.w3.org/1999/xlink"
   xmlns:sodipodi="http://sodipodi.sourceforge.net/DTD/sodipodi-0.dtd"
   xmlns:inkscape="http://www.inkscape.org/namespaces/inkscape"
   width="48mm"
   height="48mm"
   viewBox="0 0 48 48"
   version="1.1"
   id="svg54"
   inkscape:version="1.0.2 (1.0.2+r75+1)"
   sodipodi:docname="topacio_48X48.svg">
  <defs
     id="defs48">
    <linearGradient
       inkscape:collect="always"
       id="linearGradient910">
      <stop
         style="stop-color:#00c2ff;stop-opacity:1;"
         offset="0"
         id="stop906" />
      <stop
         style="stop-color:#00c2ff;stop-opacity:0;"
         offset="1"
         id="stop908" />
    </linearGradient>
    <linearGradient
       inkscape:collect="always"
       xlink:href="#linearGradient910"
       id="linearGradient912"
       x1="16.454952"
       y1="27.882273"
       x2="57.566616"
       y2="7.7345953"
       gradientUnits="userSpaceOnUse" />
  </defs>
  <sodipodi:namedview
     id="base"
     pagecolor="#ffffff"
     bordercolor="#666666"
     borderopacity="1.0"
     inkscape:pageopacity="0.0"
     inkscape:pageshadow="2"
     inkscape:zoom="1.4"
     inkscape:cx="1.8370204"
     inkscape:cy="127.62013"
     inkscape:document-units="px"
     inkscape:current-layer="layer1"
     inkscape:document-rotation="0"
     showgrid="false"
     showguides="true"
     inkscape:guide-bbox="true"
     inkscape:window-width="1202"
     inkscape:window-height="547"
     inkscape:window-x="125"
     inkscape:window-y="177"
     inkscape:window-maximized="0" />
  <metadata
     id="metadata51">
    <rdf:RDF>
      <cc:Work
         rdf:about="">
        <dc:format>image/svg+xml</dc:format>
        <dc:type
           rdf:resource="http://purl.org/dc/dcmitype/StillImage" />
        <dc:title />
      </cc:Work>
    </rdf:RDF>
  </metadata>
  <g
     inkscape:label="Capa 1"
     inkscape:groupmode="layer"
     id="layer1">
    <path
       id="central"
       style="display:inline;opacity:0.99;mix-blend-mode:normal;fill:url(#linearGradient912);fill-opacity:1;stroke:none;stroke-width:0.279367;stroke-miterlimit:4;stroke-dasharray:none;stroke-opacity:1;stop-color:#000000"
       d="m 24.374748,9.6612574 c -0.03351,-0.00318 -0.06549,-0.00237 -0.09694,0.00237 -0.129601,0.01919 -0.182153,0.1328337 -0.318185,0.6883156 -0.56876,2.322517 -3.022606,6.89301 -6.937415,12.92121 l -0.567256,0.872915 0.41373,1.603442 c 0.558124,2.162552 1.365924,5.060179 1.435998,5.15123 0.03129,0.04065 0.05645,0.12362 0.05566,0.184601 -0.0035,0.309474 1.55324,5.179692 2.39333,7.487511 1.210393,3.325062 2.550688,6.13763 3.49074,7.32517 0.254408,0.321383 0.322994,0.268056 0.198981,-0.154452 -0.04546,-0.154871 -0.101568,-0.680528 -0.124766,-1.16837 -0.08318,-1.75032 0.328868,-4.214534 1.205012,-7.206901 0.749924,-2.561267 1.742917,-4.129531 3.700851,-5.845111 L 29.681821,31.122446 30.18043,26.22864 30.679506,21.334832 30.137295,19.94568 C 28.247553,15.102429 26.522647,11.665727 25.329762,10.367718 24.90044,9.9005661 24.609351,9.6833735 24.374748,9.6613143 Z m -0.09137,11.7686056 h 0.195735 0.391466 1.827466 c 0,0 0.27948,0.07606 0.261136,0.444343 -0.01832,0.368283 -0.270411,0.381264 -0.270411,0.381264 H 26.2319 25.775033 25.318168 24.861301 l -0.0042,0.391467 -0.0047,0.391466 -0.0047,0.391469 -0.0047,0.391468 -0.0042,0.39193 -0.0047,0.391468 -0.0047,0.391467 -0.0042,0.391468 -0.0047,0.391469 -0.0047,0.391467 -0.0047,0.391931 -0.0042,0.391468 -0.0047,0.391465 -0.0047,0.391469 -0.0047,0.391468 -0.0042,0.39193 c 0,0 -0.120953,0.193881 -0.384047,0.193881 -0.290525,0 -0.39935,-0.193881 -0.39935,-0.193881 l 0.07189,-6.26487 0.0051,-0.412803 0.0024,-0.206402 c 7.44e-4,-0.0688 0.0034,-0.108586 0.0501,-0.157238 0.04671,-0.04862 0.08269,-0.04916 0.147956,-0.04916 z m -3.469869,0.01206 h 1.924871 0.412339 0.206402 c 0.06876,0 0.106296,5.37e-4 0.154919,0.04916 0.04864,0.04865 0.05148,0.08844 0.05148,0.157237 v 0.206402 0.412803 6.264871 c 0,0 -0.116951,0.19388 -0.423007,0.19388 -0.277152,0 -0.402135,-0.19388 -0.402135,-0.19388 V 28.140925 27.749459 27.357526 26.96606 26.574593 26.183124 25.791655 25.399725 25.00826 24.616791 24.225324 23.833855 23.442389 23.05046 22.65899 22.267523 h -0.48145 -0.480983 -0.48145 -0.480988 c 0,0 -0.265746,-0.01298 -0.280613,-0.381264 -0.01484,-0.36828 0.280613,-0.444343 0.280613,-0.444343 z"
       inkscape:label="central" />
    <path
       style="display:inline;opacity:0.99;mix-blend-mode:normal;fill:#009edf;fill-opacity:0.82352942;stroke:none;stroke-width:0.279367;stroke-miterlimit:4;stroke-dasharray:none;stroke-opacity:1;stop-color:#000000"
       d="m 11.583813,36.643751 c -0.06145,-0.18275 -2.6394206,-17.886129 -2.6090116,-17.916539 0.0167,-0.01669 0.4102776,0.328197 0.8745959,0.766454 2.3119177,2.182163 4.4963597,3.813476 5.9867557,4.47085 l 0.411934,0.181687 0.39065,1.543008 c 0.214862,0.848654 0.619896,2.366685 0.900073,3.373408 0.280183,1.006716 0.509422,1.865521 0.509422,1.908454 0,0.07596 -3.642122,4.238471 -3.850182,4.400297 -0.05737,0.04462 -0.661709,0.370972 -1.342974,0.725224 -0.864814,0.449696 -1.2485,0.614837 -1.271263,0.547157 z"
       id="path955" />
    <path
       style="display:inline;opacity:0.99;mix-blend-mode:normal;fill:#009ee0;fill-opacity:0.81568629;stroke:none;stroke-width:0.395083;stroke-miterlimit:4;stroke-dasharray:none;stroke-opacity:1;stop-color:#000000"
       d="M 23.845142,9.2990917 C 23.725762,9.1478892 22.685999,7.3253179 22.070443,6.1882616 21.299138,4.7635178 20.45236,2.742182 20.229046,1.7927074 l -0.06313,-0.2684215 3.40516,-0.1303657 c 1.87284,-0.071699 3.416767,-0.1155472 3.430951,-0.097442 0.0142,0.018121 -0.239467,1.2324319 -0.563668,2.6985064 l -0.589463,2.6655802 -0.668384,0.9930613 c -1.123397,1.669087 -1.221384,1.7898328 -1.335367,1.6454655 z"
       id="path957" />
    <path
       style="display:inline;opacity:0.99;mix-blend-mode:normal;fill:#0079c0;fill-opacity:0.99215686;stroke:none;stroke-width:0.395083;stroke-miterlimit:4;stroke-dasharray:none;stroke-opacity:1;stop-color:#000000"
       d="M 30.302296,19.862224 C 29.016352,16.497703 27.260312,12.757831 26.236918,11.204125 25.6469,10.308363 24.765146,9.4306807 24.455247,9.4306807 c -0.172451,0 -0.04997,-0.2340702 0.701117,-1.3398554 L 26.066433,6.7509632 26.635254,4.116545 c 0.312852,-1.4489335 0.604739,-2.6217466 0.64864,-2.6062488 0.116315,0.041046 11.692327,13.5774828 11.692327,13.6724448 0,0.08327 -7.832637,5.710178 -8.081464,5.805662 -0.09992,0.03833 -0.273434,-0.291479 -0.592461,-1.126179 z"
       id="path959" />
    <path
       style="display:inline;opacity:0.99;mix-blend-mode:normal;fill:#00c2ff;fill-opacity:1;stroke:none;stroke-width:0.395083;stroke-miterlimit:4;stroke-dasharray:none;stroke-opacity:1;stop-color:#000000"
       d="m 13.180494,37.978626 c -0.705545,-0.523227 -1.274361,-0.998356 -1.264031,-1.05585 0.01615,-0.08986 2.277855,-1.355516 2.289917,-1.281439 0.0212,0.130238 0.279666,3.270076 0.269841,3.278085 -0.0071,0.0058 -0.590178,-0.41757 -1.295727,-0.940796 z"
       id="path961" />
    <path
       style="display:inline;opacity:0.99;mix-blend-mode:normal;fill:#0079c0;fill-opacity:1;stroke:none;stroke-width:0.395083;stroke-miterlimit:4;stroke-dasharray:none;stroke-opacity:1;stop-color:#000000"
       d="M 19.324078,42.506208 C 16.995614,40.783192 15.00598,39.315967 14.902672,39.245704 14.745233,39.138633 14.690258,38.825154 14.562911,37.30834 l -0.151935,-1.809618 1.837647,-2.084221 c 1.010707,-1.146322 1.854587,-2.084221 1.875294,-2.084221 0.02071,0 0.161776,0.411593 0.313484,0.914665 1.02663,3.404292 2.240144,6.91599 3.133645,9.068205 0.452288,1.089445 1.490028,3.194405 1.877222,3.807759 0.282423,0.447386 0.31347,0.534048 0.18778,0.524203 -0.04312,-0.0035 -1.983504,-1.415882 -4.31197,-3.138904 z"
       id="path963" />
    <path
       style="display:inline;opacity:0.99;mix-blend-mode:normal;fill:#00c2ff;fill-opacity:0.99215686;stroke:none;stroke-width:0.395083;stroke-miterlimit:4;stroke-dasharray:none;stroke-opacity:1;stop-color:#000000"
       d="M 15.355339,23.48011 C 13.801042,22.632939 11.896927,21.154679 9.9912461,19.315694 l -1.0510505,-1.014262 5.5260484,-8.27846 5.526054,-8.2784585 0.134645,0.5261133 c 0.31158,1.2174971 1.470207,3.6521392 2.90996,6.1147279 0.912318,1.5604487 0.90128,1.4429019 0.289469,3.0837143 -0.87204,2.338718 -3.200325,6.502604 -6.444182,11.524727 -0.324936,0.503065 -0.625798,0.914001 -0.668577,0.91319 -0.04278,-7.45e-4 -0.429004,-0.1929 -0.858274,-0.426876 z"
       id="path965" />
    <path
       style="display:inline;opacity:0.99;mix-blend-mode:normal;fill:#00c2ff;fill-opacity:1;stroke:none;stroke-width:0.395083;stroke-miterlimit:4;stroke-dasharray:none;stroke-opacity:1;stop-color:#000000"
       d="M 34.160791,34.592938 29.8252,31.121214 30.318991,26.312708 c 0.271585,-2.644677 0.531297,-4.866193 0.577134,-4.936708 0.04584,-0.07052 1.894372,-1.419528 4.107851,-2.997819 l 4.02451,-2.869619 0.0298,0.750369 c 0.03269,0.823214 -0.474497,21.7183 -0.528499,21.772299 -0.01837,0.01837 -1.984435,-1.528849 -4.369013,-3.438292 z"
       id="path967" />
    <path
       style="display:inline;opacity:0.99;mix-blend-mode:normal;fill:#0079c1;fill-opacity:0.984314;stroke:none;stroke-width:0.279367;stroke-miterlimit:4;stroke-dasharray:none;stroke-opacity:1;stop-color:#000000"
       d="m 24.848617,46.414822 c -0.787374,-1.543383 -0.354932,-5.518234 1.075397,-9.884645 0.637737,-1.946838 1.980653,-3.81633 3.672438,-5.112437 0.114124,-0.08743 0.608687,0.286087 4.495169,3.394977 3.542876,2.834031 4.348595,3.510586 4.26975,3.585267 -0.07399,0.07009 -10.142518,6.333929 -12.902249,8.026757 l -0.461139,0.282861 z"
       id="path969" />
    <path
       id="t_izquierda"
       style="opacity:0.99;mix-blend-mode:normal;fill:#004f6f;fill-opacity:1;stroke:none;stroke-width:0.899805;stroke-miterlimit:4;stroke-dasharray:none;stroke-opacity:0.984314;paint-order:stroke fill markers;stop-color:#000000"
       d="m 20.813331,21.442102 c 0,0 -0.295449,0.07625 -0.280579,0.444535 0.01484,0.368281 0.280579,0.38107 0.280579,0.38107 h 0.481217 0.481216 0.481219 0.481218 v 0.391552 0.391557 0.391554 0.391552 0.391557 0.391554 0.391556 0.391554 0.391553 0.391556 0.391555 0.391551 0.391556 0.391554 0.391557 0.391553 c 0,0 0.124827,0.193991 0.401981,0.193991 0.306057,0 0.423162,-0.193991 0.423162,-0.193991 v -6.264871 -0.412804 -0.206401 c 0,-0.0688 -0.0026,-0.108586 -0.05126,-0.157235 -0.04862,-0.04862 -0.08627,-0.04916 -0.155034,-0.04916 h -0.20628 -0.412571 z"
       sodipodi:nodetypes="czcccccccccccccccccccccsccssssscc"
       inkscape:label="t_izquierda" />
    <path
       id="path979"
       style="opacity:0.99;mix-blend-mode:normal;fill:#0179c0;fill-opacity:0.988235;stroke:none;stroke-width:0.876675;stroke-miterlimit:4;stroke-dasharray:none;stroke-opacity:0.984314;paint-order:stroke fill markers;stop-color:#000000"
       d="m 26.697992,21.429863 c 0,0 0.27958,0.07625 0.261232,0.444534 C 26.9409,22.242681 26.6885,22.25547 26.6885,22.25547 h -0.456799 -0.456799 -0.456803 -0.456798 l -0.0045,0.391553 -0.0045,0.391555 -0.0045,0.391555 -0.0045,0.391554 -0.0045,0.391555 -0.0045,0.391554 -0.0045,0.391556 -0.0045,0.391553 -0.0045,0.391553 -0.0045,0.391556 -0.0045,0.391555 -0.0045,0.391553 -0.0045,0.391555 -0.0045,0.391554 -0.0045,0.391557 -0.0045,0.391552 c 0,0 -0.120722,0.19399 -0.383813,0.19399 -0.290528,0 -0.399461,-0.19399 -0.399461,-0.19399 l 0.07203,-6.26487 0.0047,-0.412803 0.0024,-0.206402 c 7.45e-4,-0.0688 0.0037,-0.108586 0.05046,-0.157238 0.04671,-0.04862 0.08246,-0.04916 0.14773,-0.04916 h 0.19582 0.391635 z"
       sodipodi:nodetypes="czcccccccccccccccccccccsccssssscc" />
    <path
       id="t_derecha"
       style="opacity:0.99;mix-blend-mode:normal;fill:#004f6f;fill-opacity:1;stroke:none;stroke-width:0.876675;stroke-miterlimit:4;stroke-dasharray:none;stroke-opacity:0.984314;paint-order:stroke fill markers;stop-color:#000000"
       d="m 26.697992,21.429863 c 0,0 0.27958,0.07625 0.261232,0.444534 C 26.9409,22.242681 26.6885,22.25547 26.6885,22.25547 h -0.456799 -0.456799 -0.456803 -0.456798 l -0.0045,0.391553 -0.0045,0.391555 -0.0045,0.391555 -0.0045,0.391554 -0.0045,0.391555 -0.0045,0.391554 -0.0045,0.391556 -0.0045,0.391553 -0.0045,0.391553 -0.0045,0.391556 -0.0045,0.391555 -0.0045,0.391553 -0.0045,0.391555 -0.0045,0.391554 -0.0045,0.391557 -0.0045,0.391552 c 0,0 -0.120722,0.19399 -0.383813,0.19399 -0.290528,0 -0.399461,-0.19399 -0.399461,-0.19399 l 0.07203,-6.26487 0.0047,-0.412803 0.0024,-0.206402 c 7.45e-4,-0.0688 0.0037,-0.108586 0.05046,-0.157238 0.04671,-0.04862 0.08246,-0.04916 0.14773,-0.04916 h 0.19582 0.391635 z"
       sodipodi:nodetypes="czcccccccccccccccccccccsccssssscc"
       inkscape:label="t_derecha" />
  </g>
</svg>
